<svg xmlns="http://www.w3.org/2000/svg" width="30" height="39" viewBox="0 0 30 39">
    <g fill="none" fill-rule="evenodd">
        <path fill="#0075C4" d="M299 0H612V792H299z" transform="translate(-519 -252)"/>
        <path fill="#FFF" fill-rule="nonzero" d="M546 253.5l-3-1.5-3 1.5-3-1.5-3 1.5-3-1.5-3 1.5-3-1.5-3 1.5-3-1.5v36c0 1.657 1.343 3 3 3h24c1.657 0 3-1.343 3-3v-36l-3 1.5zm-10.5 30h-9c-.828 0-1.5-.672-1.5-1.5s.672-1.5 1.5-1.5h9c.828 0 1.5.672 1.5 1.5s-.672 1.5-1.5 1.5zM525 276c0-.828.672-1.5 1.5-1.5h6c.828 0 1.5.672 1.5 1.5s-.672 1.5-1.5 1.5h-6c-.828 0-1.5-.672-1.5-1.5zm10.5-4.5h-9c-.828 0-1.5-.672-1.5-1.5s.672-1.5 1.5-1.5h9c.828 0 1.5.672 1.5 1.5s-.672 1.5-1.5 1.5zm6 12c-.828 0-1.5-.672-1.5-1.5s.672-1.5 1.5-1.5 1.5.672 1.5 1.5-.672 1.5-1.5 1.5zm0-6c-.828 0-1.5-.672-1.5-1.5s.672-1.5 1.5-1.5 1.5.672 1.5 1.5-.672 1.5-1.5 1.5zm0-6c-.828 0-1.5-.672-1.5-1.5s.672-1.5 1.5-1.5 1.5.672 1.5 1.5-.672 1.5-1.5 1.5zm0-9h-15c-.828 0-1.5-.672-1.5-1.5s.672-1.5 1.5-1.5h15c.828 0 1.5.672 1.5 1.5s-.672 1.5-1.5 1.5z" transform="translate(-519 -252)"/>
    </g>
</svg>
