<svg height="39" viewBox="0 0 30 39" width="30" xmlns="http://www.w3.org/2000/svg"><g fill="none" fill-rule="evenodd" transform="translate(-519 -252)"><path d="m299 0h313v792h-313z" fill="#0075c4"/><path d="m546 253.5-3-1.5-3 1.5-3-1.5-3 1.5-3-1.5-3 1.5-3-1.5-3 1.5-3-1.5v36c0 1.657 1.343 3 3 3h24c1.657 0 3-1.343 3-3v-36zm-10.5 30h-9c-.828 0-1.5-.672-1.5-1.5s.672-1.5 1.5-1.5h9c.828 0 1.5.672 1.5 1.5s-.672 1.5-1.5 1.5zm-10.5-7.5c0-.828.672-1.5 1.5-1.5h6c.828 0 1.5.672 1.5 1.5s-.672 1.5-1.5 1.5h-6c-.828 0-1.5-.672-1.5-1.5zm10.5-4.5h-9c-.828 0-1.5-.672-1.5-1.5s.672-1.5 1.5-1.5h9c.828 0 1.5.672 1.5 1.5s-.672 1.5-1.5 1.5zm6 12c-.828 0-1.5-.672-1.5-1.5s.672-1.5 1.5-1.5 1.5.672 1.5 1.5-.672 1.5-1.5 1.5zm0-6c-.828 0-1.5-.672-1.5-1.5s.672-1.5 1.5-1.5 1.5.672 1.5 1.5-.672 1.5-1.5 1.5zm0-6c-.828 0-1.5-.672-1.5-1.5s.672-1.5 1.5-1.5 1.5.672 1.5 1.5-.672 1.5-1.5 1.5zm0-9h-15c-.828 0-1.5-.672-1.5-1.5s.672-1.5 1.5-1.5h15c.828 0 1.5.672 1.5 1.5s-.672 1.5-1.5 1.5z" fill="#fff" fill-rule="nonzero"/></g></svg>