<svg height="37" viewBox="0 0 46 37" width="46" xmlns="http://www.w3.org/2000/svg"><g fill="#0075c4"><path d="m19.568 19.149c.367.378.644.642.92.831.367.19 1.036.487 1.956.772 1.657.476 3.674.854 5.148.951 1.84.097 2.76 1.236 2.76 2.376 0 .286.008.487-.085.772v.09c0 .096-.115.081-.115.178-.184.379-.439.664-.806.95-.366.286-.93.476-1.668.476h-5.234c-2.207 0-5.245-.854-5.521-.95h-.115c-.277-.097-.453.01-.547.296-.093.19.011.468.288.564.093 0 3.124.95 5.608.95h5.521c.92 0 2.29.09 3.854-.86l9.864-6.832c2.207-1.426 4.695-.761 4.601 1.9 0 .951-.913 2.191-2.387 3.238-1.197.854-14.656 9.873-15.76 10.634-1.103.761-2.3 1.515-4.14 1.515-1.014 0-2.208-.278-3.681-1.04-.92-.475-4.027-2.18-6.327-3.415l-1.956-1.04c-1.474-.761-1.916-.672-3.02.09l-2.501 1.692c-.184.097-.443.215-.72.119-.183-.097-.452-.308-.546-.594l-4.889-11.198c-.183-.475 0-1.058.46-1.248 7.546-3.516 9.577-4.366 11.878-4.366 4.418 0 6.057 1.912 7.16 3.149zm15.846-2.199-5.981 4.189c-.46-.19-1.111-.387-1.755-.387-.92 0-2.196-.189-3.393-.475 1.657-1.047 4.418-2.859 5.061-3.237.92-.665 2.006-1.04 3.02-1.04 1.657 0 3.048.95 3.048.95zm5.695 1.812-10.123 6.921-.087.119-.086.09c.367-.573.546-1.241.546-1.813 0-.854-.355-1.711-1.092-2.376l4.6-3.238c1.565-1.047 2.647-1.425 3.567-1.425s2.398.486 2.675 1.722z"/><path d="m24 17-.546-.44c-.454-.35-1.18-.79-1.908-1.32-3-1.938-7.546-4.759-7.546-9.604 0-3.083 2.635-5.636 5.908-5.636 1.546 0 3 .615 4.092 1.584 1.089-.969 2.542-1.584 4.089-1.584 3.273 0 5.911 2.553 5.911 5.636 0 4.845-4.546 7.752-7.458 9.605-.815.529-1.453.88-1.907 1.32z"/></g></svg>