<svg height="37" viewBox="0 0 46 37" width="46" xmlns="http://www.w3.org/2000/svg"><g fill="#fff"><path d="m19.5684427 19.1485149c.3666705.3787133.6434702.6423264.9202699.8316831.3666705.1893567 1.0353036.4863864 1.9555735.7722772 1.6572046.4752476 3.6738906.8539609 5.1477599.9504951 1.8405398.0965342 2.7608098 1.2363859 2.7608098 2.3762376 0 .2858909.0071891.4863864-.0862753.7722772v.089109c0 .0965341-.1150338.0816836-.1150338.1782178-.1833352.3787133-.4385657.6646042-.8052362.950495-.3666705.2858909-.9310545.4752476-1.6679892.4752476h-5.2340352c-2.2072103 0-5.2448198-.8539609-5.5216195-.9504951h-.1150337c-.2767997-.0965342-.4529458.0111389-.5464103.2970297-.0934644.1893567.0107847.4678223.2875844.5643564.0934644 0 3.1238847.9504951 5.6078948.9504951h5.5216195c.9202699 0 2.2898902.0891089 3.8536303-.8613861l9.8641432-6.8316832c2.2072103-1.4257426 4.694814-.7611384 4.6013496 1.9009901 0 .950495-.9130808 2.1905945-2.3869501 3.2376237-1.1970696.8539609-14.6560172 9.872525-15.7596224 10.6336634-1.1036051.7611384-2.3006748 1.5148515-4.1412146 1.5148515-1.0137344 0-2.2072104-.2784656-3.6810797-1.039604-.9202699-.4752475-4.0261809-2.1794556-6.3268557-3.4158415l-1.9555736-1.039604c-1.4738693-.7611384-1.91603046-.6720295-3.01963563.0891089l-2.50198384 1.6930693c-.18333525.0965342-.44216117.2153461-.71896088.1188119-.18333525-.0965342-.45294581-.3081686-.54641026-.5940594l-4.88893394-11.1980198c-.18333526-.4752475 0-1.0581681.46013496-1.2475248 7.5454946-3.5160893 9.57655879-4.3663366 11.87723359-4.3663366 4.4180144 0 6.0572452 1.912129 7.1608504 3.1485149zm15.8458976-2.1980199-5.9817545 4.1881189c-.4601349-.1893567-1.1107943-.3861387-1.7542645-.3861387-.9202699 0-2.1964257-.1893566-3.3934953-.4752475 1.6572046-1.0470292 4.4180143-2.8589104 5.0614845-3.2376237.92027-.6646042 2.0059013-1.039604 3.0196357-1.039604 1.6572046 0 3.0483941.950495 3.0483941.950495zm5.6941701 1.8118812-10.1229691 6.9207921-.0862753.1188119-.0862753.0891089c.3666705-.5717817.5464103-1.2400995.5464103-1.8118812 0-.8539609-.3558859-1.7116334-1.0928205-2.3762376l4.6013496-3.2376238c1.5637401-1.0470292 2.645776-1.4257425 3.5660459-1.4257425s2.3977347.4863863 2.6745344 1.7227722z"/><path d="m24 17-.546125-.4398404c-.453875-.3504412-1.1808118-.7902816-1.9077498-1.3195201-2.9999997-1.9381577-7.5461252-4.759571-7.5461252-9.60496443 0-3.08245634 2.6346868-5.63567507 5.9077488-5.63567507 1.5461257 0 2.9999998.6150619 4.0922512 1.58413986 1.0885606-.96907796 2.5424357-1.58413986 4.0885614-1.58413986 3.273062 0 5.9114386 2.55321873 5.9114386 5.63567507 0 4.84539343-4.5461255 7.75262913-7.4575643 9.60496443-.815498.5292385-1.4538751.8796807-1.9077489 1.3195201z"/></g></svg>