<svg height="39" viewBox="0 0 30 39" width="30" xmlns="http://www.w3.org/2000/svg"><g fill="none" fill-rule="evenodd" transform="translate(-519 -18)"><path d="m299 0h313v792h-313z" fill="#0075c4"/><path d="m546 18h-24c-1.657 0-3 1.343-3 3v33c0 1.657 1.343 3 3 3h24c1.657 0 3-1.343 3-3v-33c0-1.657-1.343-3-3-3zm-17.994 10.299c-.723-.414-.97-1.33-.553-2.049.417-.718 1.34-.966 2.065-.549l2.97 1.701v-3.402c0-.83.677-1.5 1.512-1.5.834 0 1.512.67 1.512 1.5v3.402l2.97-1.701c.72-.415 1.646-.17 2.065.549.417.719.17 1.635-.553 2.049l-2.97 1.701 2.97 1.701c.724.414.97 1.332.553 2.049-.281.482-.788.75-1.31.75-.256 0-.518-.064-.755-.201l-2.97-1.701v3.402c0 .83-.678 1.5-1.512 1.5-.835 0-1.512-.67-1.512-1.5v-3.402l-2.97 1.701c-.237.137-.497.201-.754.201-.524 0-1.032-.268-1.311-.75-.418-.719-.17-1.635.553-2.049l2.97-1.701zm8.994 22.701h-12c-.828 0-1.5-.672-1.5-1.5s.672-1.5 1.5-1.5h12c.828 0 1.5.672 1.5 1.5s-.672 1.5-1.5 1.5zm6-6h-18c-.828 0-1.5-.672-1.5-1.5s.672-1.5 1.5-1.5h18c.828 0 1.5.672 1.5 1.5s-.672 1.5-1.5 1.5z" fill="#fff" fill-rule="nonzero"/></g></svg>