<svg xmlns="http://www.w3.org/2000/svg" width="30" height="39" viewBox="0 0 30 39">
    <path fill="#0075C4" d="M27 0H3C1.343 0 0 1.343 0 3v33c0 1.657 1.343 3 3 3h24c1.657 0 3-1.343 3-3V3c0-1.657-1.343-3-3-3zM9.006 10.299c-.723-.414-.97-1.33-.553-2.049.417-.718 1.34-.966 2.065-.549l2.97 1.701V6c0-.83.677-1.5 1.512-1.5.834 0 1.512.67 1.512 1.5v3.402l2.97-1.701c.72-.415 1.646-.17 2.065.549.417.719.17 1.635-.553 2.049L18.024 12l2.97 1.701c.724.414.97 1.332.553 2.049-.281.482-.788.75-1.31.75-.256 0-.518-.064-.755-.201l-2.97-1.701V18c0 .83-.678 1.5-1.512 1.5-.835 0-1.512-.67-1.512-1.5v-3.402l-2.97 1.701c-.237.137-.497.201-.754.201-.524 0-1.032-.268-1.311-.75-.418-.719-.17-1.635.553-2.049L11.976 12l-2.97-1.701zM18 33H6c-.828 0-1.5-.672-1.5-1.5S5.172 30 6 30h12c.828 0 1.5.672 1.5 1.5S18.828 33 18 33zm6-6H6c-.828 0-1.5-.672-1.5-1.5S5.172 24 6 24h18c.828 0 1.5.672 1.5 1.5S24.828 27 24 27z"/>
</svg>
