<svg height="39" viewBox="0 0 41 39" width="41" xmlns="http://www.w3.org/2000/svg"><path d="m32.3444444 0c-2.2643674 0-4.1 1.82730294-4.1 4.08139535s1.8356326 4.08139535 4.1 4.08139535c2.2643675 0 4.1-1.82730294 4.1-4.08139535s-1.8356325-4.08139535-4.1-4.08139535zm-26.87777773.90697674c-.65050228.00051234-1.25139832.34618129-1.57664935.90697675h-2.97890621c-.50317193.00005008-.91111111.40608806-.91111111.90697674v7.25581396c0 5.69445081 4.42134479 10.37476911 10.0240016 10.83766371-.0009849.0153349-.0015782.0306923-.0017794.0460572 0 2.2243605-.03828487 5.3171911 1.3399739 7.9785611 1.3782569 2.6613699 4.2992363 4.7191133 9.4794706 4.7191133 2.6846417 0 4.7575616-.8481602 6.3154951-2.0672693l.0035588.0531434c1.8471949-1.4401549 2.9361776-3.4313234 3.5590278-5.2664884.0518905-.1502679.1007607-.2977886.1459199-.4446308.0539697-.1783552.1061089-.3528049.151259-.5261173.0849283-.3208802.1594727-.6321383.2153211-.9246918.0095584-.0506283.0143308-.0937043.023134-.1434864.0458553-.2565139.0767411-.4859419.1032116-.7121183.0452558-.3882713.0746692-.7493233.0747393-1.0416056.0000006-.0005908.0000006-.0011815 0-.0017723v-1.7590387c-1.312-.39-2.2777777-1.6049942-2.2777777-3.0380175 0-1.7504651 1.4304444-3.1744186 3.1888888-3.1744186 1.7584445 0 3.1888889 1.4239535 3.1888889 3.1744186 0 1.4330233-.9657777 2.6480175-2.2777777 3.0380175v1.7590387c0 1.8502326-.6105156 4.9438033-2.3507378 7.6012452-.7926666 1.2244186-1.9591021 2.567594-3.6355465 3.5924777l.2740449 5.3231744h9.6022565l.6655384-12.8695039 3.1888889-1.3073217v-6.8643265c0-4.9067442-3.8813333-8.88908046-8.6555556-8.88908046-4.7742222 0-8.6555555 3.98233626-8.6555555 8.88908046v6.8643265l3.1888889 1.3073217.1583766 3.0167607c-1.3012507 1.487304-3.2051468 2.5969292-6.1944877 2.5969292-4.7280991 0-6.7612863-1.6141655-7.8601128-3.735965-1.0988264-2.1217987-1.1371095-4.9233954-1.1371095-7.1477559-.0002011-.0153649-.0007944-.0307223-.0017794-.0460572 5.6026564-.4628946 10.0240017-5.1432129 10.0240017-10.83766371v-7.25581396c-.0000503-.50088868-.4079392-.90692666-.9111111-.90697674h-2.9806855c-.3249327-.56024844-.9250037-.9058328-1.5748701-.90697675-1.0063855 0-1.8222222.81213464-1.8222222 1.81395349s.8158367 1.81395349 1.8222222 1.81395349c.6505023-.00051227 1.2513985-.34618123 1.5766495-.90697674h2.0677949v6.34883721c0 5.01969361-4.0685356 9.06976741-9.1111111 9.06976741-5.04257502 0-9.11111108-4.0500738-9.11111108-9.06976741v-6.34883721h2.06957468c.32493262.56024832.9250035.90583266 1.57486977.90697674 1.00638554 0 1.82222222-.81213464 1.82222222-1.81395349s-.81583668-1.81395349-1.82222222-1.81395349zm26.87777773 15.41860466c-.7544 0-1.3666666.6094884-1.3666666 1.3604651 0 .7509768.6122666 1.3604651 1.3666666 1.3604651s1.3666667-.6094883 1.3666667-1.3604651c0-.7509767-.6122667-1.3604651-1.3666667-1.3604651z" fill="#fff"/></svg>