<svg height="39" viewBox="0 0 44 39" width="44" xmlns="http://www.w3.org/2000/svg"><path d="m22.0763944 0c-5.3393648 0-9.6839262 4.37420455-9.6839262 9.75 0 5.3757955 4.3445614 9.75 9.6839262 9.75s9.6839262-4.3742045 9.6839262-9.75c0-5.37579545-4.3445614-9.75-9.6839262-9.75zm-.880357 3.54545455h.0842528 1.6042445.0704973v1.57017935c.6453016.12143182 1.2073408.42436042 1.6351943.89501951.4885981.53890909.7660338 1.27880114.7651534 1.96661932h-1.6334741c-.0448982-.70288637-.373134-1.47496493-1.6197194-1.47496405-1.1453444 0-1.6781804.45246027-1.6781804 1.42302846 0 .81102272.7198432 1.01796116 1.9928393 1.31223388 1.4173747.32795455 3.1818574.73541857 3.1809773 2.85471398 0 .4032955-.1355753 2.3586553-2.6410711 2.7681553v1.0941052h-.0722166-1.6025251-.0842528v-1.121804c-1.7131746-.3279546-2.5779325-1.3915218-2.6307539-3.2528854l-.0017193-.0571288h1.6351943l-.0017193.0553977c-.0149661.5876591.137885 1.047696.4539331 1.3659005.5352579.5389091 1.3893274.5453211 1.425422.5453211 1.642746 0 1.8879527-.8681932 1.8879527-1.3849432 0-.8615454-.7198423-1.0666004-1.9928393-1.3537822-1.418255-.3190909-3.1826963-.7154754-3.1826963-2.91011172 0-.24729546.0743215-2.33306137 2.4055066-2.72660683zm-9.3314392 15.86625565c-2.2008923 0-4.13802176.7973807-11.35694858 4.0769262-.44017846.1772727-.61624985.7097831-.44017846 1.1529649l4.66657945 10.4580521c.0880357.2659091.35179891.4428362.52787029.5314725.26410708.0886364.52718256.0003457.70325394-.0882907l2.37799531-1.5944157c1.05642867-.7090909 1.49557536-.7991117 2.90414645-.0900208l1.8501247.9763845c2.2008923 1.1522727 5.1927307 2.7473815 6.0730877 3.1905634 1.408571.7090909 2.553035.9746534 3.5214277.9746534 1.7607138 0 2.9051778-.7087443 3.9616061-1.4178353 1.0564284-.7090909 13.9110146-9.1305842 15.0554786-9.9283115 1.4085711-.975 2.2885847-2.1258882 2.2885847-3.0122519.0880357-2.4818181-2.288928-3.1022727-4.4017846-1.7727272l-9.4208509 6.3811259c-1.4966068.8863636-2.8164546.7980738-3.6968116.7980738h-5.2821416c-2.3769637 0-5.2817973-.8863636-5.369833-.8863636-.2641071-.0886364-.3528312-.3541998-.2647955-.5314725.0880357-.2659091.2637637-.3552377.5278708-.2666013h.0894108c.2641071.0886363 3.169285.8863636 5.2821416.8863636h5.0173469c.7042856 0 1.2331873-.1772727 1.5853301-.4431818.3521427-.2659091.6148747-.5318182.7909461-.8863637 0-.0886363.0894108-.0879441.0894108-.1765804v-.0900209c.0880357-.2659091.0876923-.442143.0876923-.7080521 0-1.0636363-.8803569-2.1272727-2.6410708-2.2159091-1.408571-.0886363-3.3450129-.4431818-4.9296554-.8863636-.8803569-.2659091-1.4979819-.5325113-1.8501247-.7097841-.2641071-.1772727-.5282141-.4435275-.8803569-.7980729-1.0564283-1.1522727-2.640039-2.9239612-6.8657523-2.9239612zm19.1030569 0c-.9683926 0-2.0237891.3541989-2.904146.9746534-.6162499.3545455-3.2573207 2.038983-4.8419632 3.013983 1.1444641.2659091 2.3762762.4431818 3.2566331.4431818.6162499 0 1.2328439.1776184 1.6730224.3548911l5.72232-3.9003457s-1.3212238-.8863636-2.9058663-.8863636zm5.8100124.9746534c-.8803569 0-1.9354101.3545455-3.4320169 1.3295455l-4.4017846 3.0139829c.7042855.6204546 1.0557407 1.4181818 1.0557407 2.2159091 0 .5318182-.1757271 1.1526184-.5278699 1.6844366l.0876915-.0900209.0876914-.0882906 9.6839263-6.4694158c-.2641071-1.1522727-1.6730215-1.5961468-2.5533785-1.5961468z" fill="#fff"/></svg>