<svg height="39" viewBox="0 0 44 39" width="44" xmlns="http://www.w3.org/2000/svg"><path d="m22.076 0c-5.339 0-9.684 4.374-9.684 9.75s4.345 9.75 9.684 9.75c5.34 0 9.684-4.374 9.684-9.75s-4.344-9.75-9.684-9.75zm-.88 3.545h1.759v1.57c.645.122 1.207.425 1.635.896.489.539.766 1.278.765 1.966h-1.633c-.045-.703-.373-1.475-1.62-1.475-1.145 0-1.678.453-1.678 1.423 0 .811.72 1.018 1.993 1.313 1.417.328 3.182.735 3.18 2.854 0 .404-.135 2.359-2.64 2.768v1.095h-1.759v-1.122c-1.713-.328-2.578-1.392-2.631-3.253l-.002-.057h1.635l-.001.055c-.015.588.138 1.048.454 1.366.535.539 1.389.545 1.425.545 1.643 0 1.888-.868 1.888-1.385 0-.861-.72-1.066-1.993-1.353-1.418-.32-3.182-.716-3.182-2.91 0-.248.074-2.334 2.405-2.727zm-9.331 15.867c-2.201 0-4.138.797-11.357 4.077-.44.177-.617.71-.44 1.153l4.665 10.458c.088.266.352.442.528.531.264.089.527 0 .703-.088l2.378-1.595c1.057-.709 1.496-.799 2.904-.09l1.85.977c2.201 1.152 5.193 2.747 6.074 3.19 1.408.71 2.553.975 3.521.975 1.76 0 2.905-.709 3.962-1.418 1.056-.709 13.91-9.13 15.055-9.928 1.409-.975 2.289-2.126 2.289-3.012.088-2.482-2.29-3.103-4.402-1.773l-9.421 6.381c-1.497.886-2.816.798-3.697.798h-5.282c-2.377 0-5.282-.886-5.37-.886-.264-.089-.353-.354-.265-.532.088-.266.264-.355.528-.266h.09c.264.088 3.169.886 5.282.886h5.017c.704 0 1.233-.177 1.586-.443.352-.266.614-.532.79-.887 0-.088.09-.087.09-.176v-.09c.088-.266.088-.442.088-.708 0-1.064-.88-2.127-2.642-2.216-1.408-.089-3.345-.443-4.93-.886-.88-.266-1.497-.533-1.85-.71-.263-.178-.528-.444-.88-.798-1.056-1.153-2.64-2.924-6.865-2.924zm19.103 0c-.969 0-2.024.354-2.904.974-.617.355-3.258 2.04-4.842 3.014 1.144.266 2.376.444 3.256.444.616 0 1.233.177 1.673.354l5.723-3.9s-1.322-.886-2.906-.886zm5.81.974c-.88 0-1.936.355-3.432 1.33l-4.402 3.014c.704.62 1.056 1.418 1.056 2.216 0 .532-.176 1.152-.528 1.684l.087-.09.088-.088 9.684-6.47c-.264-1.152-1.673-1.596-2.553-1.596z" fill="#0075c4"/></svg>