<svg height="30pt" viewBox="0 0 30 30" width="30pt" xmlns="http://www.w3.org/2000/svg"><path d="m6.601562 3c-.914062 0-1.601562 1-1.601562 1-5.234375 0-2.347656 8.355469-3.886719 9.589844 0 0 .945313 1.164062 3.886719 1.164062v1c-.8125 2.117188-5 1.332032-5 5.246094h8.023438c.703124-.425781 2.976562-1.609375 2.976562-1.609375-.542969-.578125-1.328125-1.582031-1.609375-2.339844-.625-.3125-1.152344-.679687-1.390625-1.296875v-1.011718c.191406 0 .75-.042969.949219-.085938-.449219-.6875-.824219-2.253906-.824219-3.132812 0-2.234376.960938-4.070313 2.558594-5.21875-.484375-1.84375-1.550782-3.304688-4.082032-3.304688zm16.398438 0c-2.222656 0-3.589844 1.527344-3.917969 3.53125 1.617188.867188 2.667969 2.734375 2.667969 5.085938 0 .734374-.171875 1.441406-.355469 1.988281.066407.273437.105469.574219.105469.910156 0 2.46875-2.5 4.933594-2.5 4.933594.542969.238281 2.28125 1.121093 2.992188 1.550781h8.007812c0-5.25-4.261719-3.75-5-6v-1.5c.332031-.167969 1.121094-1.316406 1.222656-2.214844.261719-.019531.777344-.65625.777344-1.226562 0-.566406-.179688-.804688-.335938-.898438 0 0 .335938-.75.335938-1.660156 0-1.820312-.492188-3.5-2-3.5 0 0-.433594-1-2-1zm-8 4c-2.691406 0-4.875 1.621094-4.875 4.523438 0 1.226562.6875 2.183593.6875 2.183593s-.3125.152344-.3125.808594c0 1.273437.816406 1.578125.816406 1.578125.117188 1.007812 1.683594 2.484375 1.683594 2.484375v1.6875c-.84375 2.523437-6 .859375-6 6.734375h16c0-5.894531-5.15625-4.210938-6-6.734375v-1.6875s1.566406-1.476563 1.679688-2.484375c0 0 .820312-.566406.820312-1.578125 0-.703125-.3125-.808594-.3125-.808594s.5625-1.070312.5625-2.089843c0-2.046876-1.027344-3.617188-2.75-3.617188 0 0-.730469-1-2-1zm0 0" fill="#0075c4"/></svg>