<svg xmlns="http://www.w3.org/2000/svg" width="48" height="38" viewBox="0 0 48 38">
    <path fill="#0075C4" d="M10.563 0C9.1 0 8 1.583 8 1.583c-8.376 0-3.755 13.23-6.216 15.181 0 0 1.509 1.846 6.216 1.846v1.58c-1.3 3.354-8 2.114-8 8.31h12.838c1.126-.674 4.762-2.545 4.762-2.545-.869-.918-2.122-2.506-2.578-3.708-.999-.496-1.843-1.078-2.222-2.056v-1.6c.304 0 1.2-.069 1.516-.138C13.602 17.365 13 14.886 13 13.495c0-3.535 1.539-6.443 4.09-8.266C16.322 2.314 14.613 0 10.564 0zM36.8 0c-3.557 0-5.74 2.421-6.269 5.594 2.586 1.371 4.269 4.327 4.269 8.05 0 1.164-.274 2.283-.572 3.151.11.43.172.908.172 1.438 0 3.91-4 7.812-4 7.812.869.375 3.648 1.773 4.784 2.455H48c0-8.313-6.82-5.938-8-9.5v-2.375c.531-.264 1.796-2.085 1.956-3.507.416-.032 1.244-1.038 1.244-1.939 0-.9-.29-1.28-.54-1.425 0 0 .54-1.19.54-2.629 0-2.883-.787-5.542-3.2-5.542 0 0-.693-1.583-3.2-1.583zM24 6.333c-4.307 0-7.8 2.568-7.8 7.162 0 1.943 1.1 3.458 1.1 3.458s-.5.243-.5 1.28c0 2.016 1.31 2.499 1.31 2.499.182 1.596 2.69 3.933 2.69 3.933v2.67c-1.347 3.999-9.6 1.363-9.6 10.665h25.6c0-9.334-8.253-6.666-9.6-10.666v-2.669s2.508-2.337 2.69-3.933c0 0 1.31-.895 1.31-2.499 0-1.111-.5-1.28-.5-1.28s.9-1.694.9-3.31c0-3.237-1.642-5.726-4.4-5.726 0 0-1.171-1.584-3.2-1.584z"/>
</svg>
