<svg height="30pt" viewBox="0 0 30 30" width="30pt" xmlns="http://www.w3.org/2000/svg"><path d="m6.601562 3c-.914062 0-1.601562 1-1.601562 1-5.234375 0-2.347656 8.355469-3.882812 9.589844 0 0 .941406 1.164062 3.882812 1.164062v1c-.8125 2.117188-5 1.332032-5 5.246094h8.023438c.703124-.425781 2.976562-1.605469 2.976562-1.605469-.542969-.582031-1.328125-1.585937-1.609375-2.34375-.625-.3125-1.152344-.679687-1.390625-1.296875v-1.011718c.191406 0 .75-.042969.945312-.085938-.445312-.6875-.820312-2.253906-.820312-3.132812 0-2.234376.960938-4.070313 2.554688-5.21875-.480469-1.84375-1.546876-3.304688-4.078126-3.304688zm16.398438 0c-2.222656 0-3.589844 1.527344-3.917969 3.535156 1.617188.863282 2.667969 2.730469 2.667969 5.082032 0 .734374-.171875 1.441406-.359375 1.988281.070313.273437.109375.574219.109375.910156 0 2.46875-2.5 4.933594-2.5 4.933594.542969.238281 2.28125 1.121093 2.988281 1.550781h8.011719c0-5.25-4.261719-3.75-5-6v-1.5c.332031-.167969 1.121094-1.316406 1.222656-2.214844.261719-.019531.777344-.65625.777344-1.222656 0-.570312-.179688-.808594-.339844-.902344 0 0 .339844-.75.339844-1.660156 0-1.820312-.492188-3.5-2-3.5 0 0-.433594-1-2-1zm-8 4c-2.691406 0-4.875 1.621094-4.875 4.523438 0 1.226562.6875 2.183593.6875 2.183593s-.3125.152344-.3125.808594c0 1.273437.820312 1.578125.820312 1.578125.113282 1.007812 1.679688 2.484375 1.679688 2.484375v1.6875c-.84375 2.523437-6 .859375-6 6.734375h16c0-5.894531-5.15625-4.210938-6-6.734375v-1.6875s1.566406-1.476563 1.679688-2.484375c0 0 .820312-.566406.820312-1.578125 0-.703125-.3125-.808594-.3125-.808594s.5625-1.070312.5625-2.089843c0-2.046876-1.027344-3.617188-2.75-3.617188 0 0-.730469-1-2-1zm0 0" fill="#fff"/></svg>