<svg xmlns="http://www.w3.org/2000/svg" width="30" height="39" viewBox="0 0 30 39">
    <g fill="none" fill-rule="evenodd">
        <path fill="#0075C4" d="M299 0H612V792H299z" transform="translate(-521 -499)"/>
        <path fill="#FFF" fill-rule="nonzero" d="M548 499h-24c-1.657 0-3 1.343-3 3v33c0 1.657 1.343 3 3 3h24c1.657 0 3-1.343 3-3v-33c0-1.657-1.343-3-3-3zm-18.375 15.333v-1.354c-.282-.15-1.086-1.189-1.17-1.999-.22-.018-.569-.238-.672-1.107-.054-.466.165-.729.297-.811 0 0-.33-.752-.33-1.5 0-2.22 1.1-4.062 3.75-4.062 1.431 0 1.875 1.015 1.875 1.015 1.28 0 1.875 1.403 1.875 3.047 0 .82-.33 1.5-.33 1.5.132.082.351.345.297.811-.102.869-.45 1.09-.67 1.107-.084.81-.888 1.848-1.17 1.998v1.355c.56 1.825 3.3.932 4.125 4.167H525.5c.825-3.235 3.564-2.341 4.125-4.167zM545 532h-18c-.828 0-1.5-.672-1.5-1.5s.672-1.5 1.5-1.5h18c.828 0 1.5.672 1.5 1.5s-.672 1.5-1.5 1.5zm0-6h-18c-.828 0-1.5-.672-1.5-1.5s.672-1.5 1.5-1.5h18c.828 0 1.5.672 1.5 1.5s-.672 1.5-1.5 1.5zm0-7.5h-3c-.828 0-1.5-.672-1.5-1.5s.672-1.5 1.5-1.5h3c.828 0 1.5.672 1.5 1.5s-.672 1.5-1.5 1.5zm0-6h-3c-.828 0-1.5-.672-1.5-1.5s.672-1.5 1.5-1.5h3c.828 0 1.5.672 1.5 1.5s-.672 1.5-1.5 1.5z" transform="translate(-521 -499)"/>
    </g>
</svg>
