<svg xmlns="http://www.w3.org/2000/svg" width="30" height="39" viewBox="0 0 30 39">
    <path fill="#0075C4" d="M27 0H3C1.343 0 0 1.343 0 3v33c0 1.657 1.343 3 3 3h24c1.657 0 3-1.343 3-3V3c0-1.657-1.343-3-3-3zM8.625 15.333v-1.354c-.282-.15-1.086-1.188-1.17-1.998-.22-.018-.569-.239-.672-1.107-.054-.467.165-.73.297-.812 0 0-.33-.752-.33-1.5 0-2.22 1.1-4.062 3.75-4.062 1.431 0 1.875 1.016 1.875 1.016 1.28 0 1.875 1.402 1.875 3.046 0 .82-.33 1.5-.33 1.5.132.083.351.345.297.812-.102.868-.45 1.088-.67 1.106-.085.81-.889 1.848-1.17 1.998v1.355c.56 1.825 3.3.932 4.124 4.167H4.5c.825-3.235 3.564-2.341 4.125-4.167zM24 33H6c-.828 0-1.5-.672-1.5-1.5S5.172 30 6 30h18c.828 0 1.5.672 1.5 1.5S24.828 33 24 33zm0-6H6c-.828 0-1.5-.672-1.5-1.5S5.172 24 6 24h18c.828 0 1.5.672 1.5 1.5S24.828 27 24 27zm0-7.5h-3c-.828 0-1.5-.672-1.5-1.5s.672-1.5 1.5-1.5h3c.828 0 1.5.672 1.5 1.5s-.672 1.5-1.5 1.5zm0-6h-3c-.828 0-1.5-.672-1.5-1.5s.672-1.5 1.5-1.5h3c.828 0 1.5.672 1.5 1.5s-.672 1.5-1.5 1.5z"/>
</svg>
