<svg height="37" viewBox="0 0 39 37" width="39" xmlns="http://www.w3.org/2000/svg"><path d="m19.5 0c-11.181625 0-13.86196094 5.01108696-14.45996094 8.04347826h3.3674316c.710125-2.02534783 3.13165434-4.82608696 11.09252934-4.82608696 7.969 0 10.4128229 2.70743479 11.1115729 4.82608696h3.3483888c-.598-3.0323913-3.2783367-8.04347826-14.4599617-8.04347826zm-15.27880867 11.2608696c-1.55675001 0-2.89069723 1.0831042-3.18969723 2.5952781-.463125 2.3503043-1.0314941 6.0788088-1.0314941 10.2742871 0 7.1072174 2.182375 12.8695652 4.875 12.8695652h29.25c2.692625 0 4.875-5.7623478 4.875-12.8695652 0-4.1954783-.5683697-7.9239828-1.0314948-10.2742871-.2989999-1.5121739-1.6329462-2.5952781-3.1896962-2.5952781zm15.27880867 3.2173913c5.38525 0 9.75 4.3209565 9.75 9.6521739s-4.36475 9.6521739-9.75 9.6521739-9.75-4.3209565-9.75-9.6521739 4.36475-9.6521739 9.75-9.6521739zm-.0253906 3.198539c-.8944793.013827-1.6087516.7420194-1.5964358 1.6275479v3.2205331h-3.2531736c-.583399-.0059425-1.125069.298768-1.4185151.7979702s-.2934461 1.1159652 0 1.6151674.8351161.8039127 1.4185151.7979702h3.2531736v3.220533c-.0060027.5775456.3017961 1.1137807.8060577 1.4042825.5042617.2905019 1.1272757.2905019 1.6315374 0 .5042616-.2905018.8120604-.8267369.8060577-1.4042825v-3.220533h3.2531736c.583399.0059425 1.125069-.298768 1.4185151-.7979702s.2934461-1.1159652 0-1.6151674-.8351161-.8039127-1.4185151-.7979702h-3.2531736v-3.2205331c.0060366-.4340041-.165674-.851939-.4759998-1.1585593-.3103257-.3066202-.7328269-.4758017-1.1712172-.4689886z" fill="#fff"/></svg>