<svg xmlns="http://www.w3.org/2000/svg" width="39" height="37" viewBox="0 0 39 37">
    <path fill="#0075C4" d="M19.5 0C8.318 0 5.638 5.011 5.04 8.043h3.367c.71-2.025 3.132-4.826 11.093-4.826 7.969 0 10.413 2.708 11.112 4.826h3.348C33.362 5.011 30.682 0 19.5 0zM4.221 11.26c-1.557 0-2.89 1.084-3.19 2.596C.568 16.206 0 19.935 0 24.13 0 31.238 2.182 37 4.875 37h29.25C36.818 37 39 31.238 39 24.13c0-4.195-.568-7.924-1.031-10.274-.3-1.512-1.633-2.595-3.19-2.595H4.22zM19.5 14.479c5.385 0 9.75 4.321 9.75 9.652 0 5.332-4.365 9.653-9.75 9.653s-9.75-4.321-9.75-9.653c0-5.33 4.365-9.652 9.75-9.652zm-.025 3.199c-.895.014-1.61.742-1.597 1.627v3.22h-3.253c-.583-.005-1.125.3-1.419.799-.293.5-.293 1.116 0 1.615.294.5.836.804 1.419.798h3.253v3.22c-.006.578.302 1.114.806 1.405.504.29 1.128.29 1.632 0s.812-.827.806-1.404v-3.221h3.253c.583.006 1.125-.299 1.419-.798.293-.5.293-1.116 0-1.615-.294-.5-.836-.804-1.419-.798h-3.253v-3.22c.006-.435-.166-.853-.476-1.16-.31-.306-.733-.475-1.171-.468z"/>
</svg>
