<svg xmlns="http://www.w3.org/2000/svg" width="39" height="37" viewBox="0 0 39 37">
    <g fill="none" fill-rule="evenodd">
        <path fill="#0075C4" d="M299 0H612V792H299z" transform="translate(-516 -440)"/>
        <path fill="#FFF" fill-rule="nonzero" d="M535.5 440c-11.182 0-13.862 5.011-14.46 8.043h3.367c.71-2.025 3.132-4.826 11.093-4.826 7.969 0 10.413 2.708 11.112 4.826h3.348c-.598-3.032-3.278-8.043-14.46-8.043zm-15.279 11.26c-1.557 0-2.89 1.084-3.19 2.596-.463 2.35-1.031 6.079-1.031 10.274 0 7.108 2.182 12.87 4.875 12.87h29.25c2.693 0 4.875-5.762 4.875-12.87 0-4.195-.568-7.924-1.031-10.274-.3-1.512-1.633-2.595-3.19-2.595H520.22zm15.279 3.218c5.385 0 9.75 4.321 9.75 9.652 0 5.332-4.365 9.653-9.75 9.653s-9.75-4.321-9.75-9.653c0-5.33 4.365-9.652 9.75-9.652zm-.025 3.199c-.895.014-1.61.742-1.597 1.627v3.22h-3.253c-.583-.005-1.125.3-1.419.799-.293.5-.293 1.116 0 1.615.294.5.836.804 1.419.798h3.253v3.22c-.006.578.302 1.114.806 1.405.504.29 1.128.29 1.632 0s.812-.827.806-1.404v-3.221h3.253c.583.006 1.125-.299 1.419-.798.293-.5.293-1.116 0-1.615-.294-.5-.836-.804-1.419-.798h-3.253v-3.22c.006-.435-.166-.853-.476-1.16-.31-.306-.733-.475-1.171-.468z" transform="translate(-516 -440)"/>
    </g>
</svg>
