<svg height="30pt" viewBox="0 0 30 30" width="30pt" xmlns="http://www.w3.org/2000/svg"><path d="m23.917969 14h-2.167969c-.363281 0-.699219.199219-.878906.519531l-2.066406 3.789063h-.167969l-3.480469-6.585938c1.5625-.679687 2.429688-2.277344 2.429688-4.023437 0-2.941407-1.992188-4.699219-5.320313-4.699219h-5.265625c-.550781 0-1 .449219-1 1v12c0 .550781.449219 1 1 1h1.621094c.554687 0 1-.449219 1-1v-3.742188h2.144531l4.664063 8.183594-3.53125 5.800782c-.203126.332031.039062.757812.429687.757812h2.058594c.351562 0 .675781-.183594.855469-.484375l2.195312-3.632813h.171875l2.175781 3.632813c.179688.300781.507813.484375.859375.484375h2.246094c.394531 0 .632813-.433594.421875-.765625l-3.632812-5.757813 3.660156-5.707031c.214844-.332031-.027344-.769531-.421875-.769531zm-14.296875-4.300781v-3.964844h2.132812c1.292969 0 2.132813.78125 2.132813 1.992187 0 1.234376-.789063 1.972657-2.121094 1.972657zm0 0" fill="#0075c4"/></svg>