<svg height="39" viewBox="0 0 30 39" width="30" xmlns="http://www.w3.org/2000/svg"><g fill="none" fill-rule="evenodd" transform="translate(-521 -560)"><path d="m299 0h313v792h-313z" fill="#0075c4"/><path d="m550.185 577.875h-3.531c-.597 0-1.144.325-1.43.847l-3.367 6.152h-.278l-5.663-10.698c2.539-1.106 3.954-3.705 3.954-6.542 0-4.779-3.248-7.634-8.665-7.634h-8.576c-.9 0-1.629.728-1.629 1.625v19.5c0 .897.73 1.625 1.629 1.625h2.641c.9 0 1.63-.728 1.63-1.625v-6.082h3.49l7.594 13.3-5.748 9.424c-.329.54.062 1.233.697 1.233h3.356c.57 0 1.099-.297 1.394-.785l3.575-5.905h.278l3.546 5.9c.293.491.824.79 1.396.79h3.66c.641 0 1.03-.705.688-1.246l-5.917-9.354 5.961-9.275c.347-.54-.042-1.25-.685-1.25zm-23.286-6.986v-6.446h3.472c2.106 0 3.473 1.267 3.473 3.238 0 2.006-1.285 3.208-3.456 3.208z" fill="#fff" fill-rule="nonzero"/></g></svg>