<svg xmlns="http://www.w3.org/2000/svg" width="30" height="39" viewBox="0 0 30 39">
    <path fill="#0075C4" d="M29.185 17.875h-3.531c-.597 0-1.144.325-1.43.847l-3.367 6.152h-.278l-5.663-10.697c2.539-1.107 3.954-3.705 3.954-6.543C18.87 2.855 15.622 0 10.205 0H1.63C.729 0 0 .728 0 1.625v19.5c0 .897.73 1.625 1.629 1.625H4.27c.9 0 1.63-.728 1.63-1.625v-6.082h3.49l7.594 13.3-5.748 9.424c-.329.54.062 1.233.697 1.233h3.356c.57 0 1.099-.297 1.394-.785l3.575-5.905h.278l3.546 5.9c.293.491.824.79 1.396.79h3.66c.641 0 1.03-.705.688-1.246L23.91 28.4l5.961-9.275c.347-.54-.042-1.25-.685-1.25zM5.899 10.889V4.443h3.472c2.106 0 3.473 1.267 3.473 3.238 0 2.006-1.285 3.208-3.456 3.208H5.899z"/>
</svg>
