<svg height="42" viewBox="0 0 42 42" width="42" xmlns="http://www.w3.org/2000/svg"><g fill="none" fill-rule="evenodd" transform="translate(-514 -379)"><path d="m299 0h313v792h-313z" fill="#0075c4"/><path d="m535 379c-7.137 0-12.923 5.786-12.923 12.923 0 9.692 11.308 12.923 11.308 19.385 0 .891.723 1.615 1.615 1.615s1.615-.724 1.615-1.615c0-6.462 11.308-9.693 11.308-19.385 0-7.137-5.786-12.923-12.923-12.923zm0 9.692c1.785 0 3.23 1.446 3.23 3.231s-1.445 3.23-3.23 3.23-3.23-1.445-3.23-3.23 1.445-3.23 3.23-3.23zm-9.077 16.892c-6.712 1.147-11.923 3.617-11.923 7.34 0 5.3 10.565 8.076 21 8.076s21-2.775 21-8.077c0-3.722-5.211-6.192-11.923-7.339-.13.131-.263.26-.394.389-.884.87-1.706 1.688-2.367 2.464 7.45.877 11.453 3.174 11.453 4.486 0 1.646-6.272 4.846-17.769 4.846s-17.77-3.2-17.77-4.846c0-1.312 4.003-3.61 11.454-4.486-.663-.776-1.485-1.594-2.367-2.464z" fill="#fff" fill-rule="nonzero"/></g></svg>