<svg height="30pt" viewBox="0 0 30 30" width="30pt" xmlns="http://www.w3.org/2000/svg"><path d="m15 2c-4.417969 0-8 3.582031-8 8 0 6 7 8 7 12 0 .550781.449219 1 1 1s1-.449219 1-1c0-4 7-6 7-12 0-4.417969-3.582031-8-8-8zm0 6c1.105469 0 2 .894531 2 2s-.894531 2-2 2-2-.894531-2-2 .894531-2 2-2zm-5.617188 10.457031c-4.15625.710938-7.382812 2.238281-7.382812 4.542969 0 3.28125 6.539062 5 13 5s13-1.71875 13-5c0-2.304688-3.226562-3.832031-7.382812-4.542969-.078126.082031-.160157.160157-.242188.242188-.546875.535156-1.054688 1.042969-1.464844 1.523437 4.613282.542969 7.089844 1.964844 7.089844 2.777344 0 1.019531-3.882812 3-11 3s-11-1.980469-11-3c0-.8125 2.476562-2.234375 7.089844-2.777344-.410156-.480468-.917969-.988281-1.464844-1.523437-.078125-.082031-.164062-.160157-.242188-.242188zm0 0" fill="#fff"/></svg>