<svg height="50pt" viewBox="0 0 50 50" width="50pt" xmlns="http://www.w3.org/2000/svg"><path d="m25 0c-3.5 0-6.804688 1.292969-9.40625 3.59375-2.898438 2.601562-4.59375 6.40625-4.59375 10.40625 0 1.101562.898438 2 2 2h2c1.101562 0 2-.898438 2-2 0-2.300781.988281-4.398438 2.6875-6 1.5-1.300781 3.3125-2 5.3125-2 .300781 0 .605469-.007812.90625.09375 3.699219.398438 6.601562 3.398438 7 7 .398438 3.300781-1.320312 6.398438-4.21875 8-4.199219 2.199219-6.78125 6.398438-6.78125 11v5.90625c0 1.101562.898438 2 2 2h2c1.101562 0 2-.898438 2-2v-5.90625c0-2.300781 1.394531-4.488281 3.59375-5.6875 5.101562-2.699219 8.011719-8.207031 7.3125-13.90625-.601562-6.5-5.820312-11.707031-12.21875-12.40625-.5-.1015625-1.09375-.09375-1.59375-.09375zm-2 44c-.550781 0-1 .445312-1 1v4c0 .554688.449219 1 1 1h4c.554688 0 1-.445312 1-1v-4c0-.554688-.445312-1-1-1zm0 0" fill="#0075c4"/></svg>