<svg height="36" viewBox="0 0 38 36" width="38" xmlns="http://www.w3.org/2000/svg"><path d="m16.0769231 0c-8.87884618 0-16.0769231 6.44688-16.0769231 14.4 0 4.0847098 1.91187836 7.7583902 4.96409258 10.3753123-.43779697 1.4125968-1.35102072 2.8175343-3.02869587 4.0696877-.00094893.00094-.00190049.0018775-.00285468.0028123-.2832885.1061488-.47067188.373571-.47100357.6721877 0 .397645.32717653.72.73076923.72.04993442-.0006132.09967354-.0062679.1484375-.0168754 2.83548429-.0081403 5.25478586-1.2014726 7.17923682-2.6971876.91324009.3659889 1.86652699.6677208 2.86027619.8775-.4443077-1.2384-.6879505-2.556877-.6879505-3.923437 0-2.07072.5636964-4.02192 1.5414671-5.76h-3.0030056c-.8067692 0-1.46153843-.64512-1.46153843-1.44s.65476923-1.44 1.46153843-1.44h5.215294c1.1867692-1.17216 2.6031373-2.1528 4.1962143-2.88h-9.4115083c-.8067692 0-1.46153843-.64512-1.46153843-1.44s.65476923-1.44 1.46153843-1.44h11.6923077c.8067693 0 1.4615385.64512 1.4615385 1.44 0 .09648-.0366978.1820923-.0542362.2728123.9616923-.17712 1.9571593-.2728123 2.9773131-.2728123 2.0198462 0 3.945331.365603 5.6977171 1.026563-1.0172322-7.07616054-7.7526402-12.546563-15.9284863-12.546563zm10.2307692 14.4c-6.4570769 0-11.6923077 4.51296-11.6923077 10.08s5.2352308 10.08 11.6923077 10.08c1.5435059 0 3.0127262-.2655619 4.3617789-.734063 1.7923693 1.2336336 3.9614868 2.1486384 6.4456126 2.1571876.0506293.0109967.1023025.0166537.154147.0168754.4035927 0 .7307692-.322355.7307692-.72-.0004783-.3017891-.1919295-.5712602-.4795673-.675-1.3375839-1.0005437-2.1948829-2.1018686-2.7089849-3.2231246 1.9712544-1.8043632 3.1885522-4.2276255 3.1885522-6.9018754 0-5.56704-5.2352308-10.08-11.6923077-10.08zm-4.3846154 5.76h8.7692308c.8067692 0 1.4615385.64512 1.4615385 1.44s-.6547693 1.44-1.4615385 1.44h-8.7692308c-.8067692 0-1.4615384-.64512-1.4615384-1.44s.6547692-1.44 1.4615384-1.44zm0 5.76h8.7692308c.8067692 0 1.4615385.64512 1.4615385 1.44s-.6547693 1.44-1.4615385 1.44h-8.7692308c-.8067692 0-1.4615384-.64512-1.4615384-1.44s.6547692-1.44 1.4615384-1.44z" fill="#fff"/></svg>