<svg height="50pt" viewBox="0 0 50 50" width="50pt" xmlns="http://www.w3.org/2000/svg"><path d="m3 6c-1.652344 0-3 1.347656-3 3v6c0 1.652344 1.347656 3 3 3h8c1.652344 0 3-1.347656 3-3v-6c0-1.652344-1.347656-3-3-3zm20 0c-1.652344 0-3 1.347656-3 3v2h-4v2h4v2c0 1.652344 1.347656 3 3 3h8c1.652344 0 3-1.347656 3-3v-6c0-1.652344-1.347656-3-3-3zm13 5v2h3c1.652344 0 3 1.347656 3 3v1h2v-1c0-2.757812-2.242188-5-5-5zm3 8c-1.652344 0-3 1.347656-3 3v6c0 1.652344 1.347656 3 3 3h8c1.652344 0 3-1.347656 3-3v-6c0-1.652344-1.347656-3-3-3zm-36 13c-1.652344 0-3 1.347656-3 3v6c0 1.652344 1.347656 3 3 3h8c1.652344 0 3-1.347656 3-3v-6c0-1.652344-1.347656-3-3-3zm20 0c-1.652344 0-3 1.347656-3 3v2h-4v2h4v2c0 1.652344 1.347656 3 3 3h8c1.652344 0 3-1.347656 3-3v-6c0-1.652344-1.347656-3-3-3zm19 1v1c0 1.652344-1.347656 3-3 3h-3v2h3c2.757812 0 5-2.242188 5-5v-1zm0 0" fill="#0075c4"/></svg>