<svg height="38" viewBox="0 0 50 38" width="50" xmlns="http://www.w3.org/2000/svg"><g fill="none" fill-rule="evenodd" transform="translate(-512 -685)"><path d="m299 0h313v792h-313z" fill="#0075c4"/><path d="m515 685c-1.652 0-3 1.348-3 3v6c0 1.652 1.348 3 3 3h8c1.652 0 3-1.348 3-3v-6c0-1.652-1.348-3-3-3zm20 0c-1.652 0-3 1.348-3 3v2h-4v2h4v2c0 1.652 1.348 3 3 3h8c1.652 0 3-1.348 3-3v-6c0-1.652-1.348-3-3-3zm13 5v2h3c1.652 0 3 1.348 3 3v1h2v-1c0-2.758-2.242-5-5-5zm3 8c-1.652 0-3 1.348-3 3v6c0 1.652 1.348 3 3 3h8c1.652 0 3-1.348 3-3v-6c0-1.652-1.348-3-3-3zm-36 13c-1.652 0-3 1.348-3 3v6c0 1.652 1.348 3 3 3h8c1.652 0 3-1.348 3-3v-6c0-1.652-1.348-3-3-3zm20 0c-1.652 0-3 1.348-3 3v2h-4v2h4v2c0 1.652 1.348 3 3 3h8c1.652 0 3-1.348 3-3v-6c0-1.652-1.348-3-3-3zm19 1v1c0 1.652-1.348 3-3 3h-3v2h3c2.758 0 5-2.242 5-5v-1z" fill="#fff" fill-rule="nonzero"/></g></svg>