<svg xmlns="http://www.w3.org/2000/svg" width="41" height="39" viewBox="0 0 41 39">
    <g fill="none" fill-rule="evenodd">
        <path fill="#0075C4" d="M299 0H612V792H299z" transform="translate(-513 -140)"/>
        <path fill="#FFF" fill-rule="nonzero" d="M545.344 140c-2.264 0-4.1 1.827-4.1 4.081 0 2.254 1.836 4.082 4.1 4.082 2.265 0 4.1-1.828 4.1-4.082 0-2.254-1.835-4.081-4.1-4.081zm-26.877.907c-.65 0-1.252.346-1.577.907h-2.979c-.503 0-.911.406-.911.907v7.256c0 5.694 4.421 10.375 10.024 10.837l-.002.046c0 2.225-.038 5.318 1.34 7.979 1.378 2.661 4.3 4.72 9.48 4.72 2.684 0 4.757-.849 6.315-2.068l.004.053c1.847-1.44 2.936-3.431 3.559-5.266.052-.15.1-.298.146-.445.054-.178.106-.353.15-.526.086-.321.16-.632.216-.925.01-.05.015-.094.023-.143.046-.257.077-.486.104-.713.045-.388.074-.749.074-1.041v-1.761c-1.312-.39-2.277-1.605-2.277-3.038 0-1.75 1.43-3.174 3.188-3.174 1.759 0 3.19 1.424 3.19 3.174 0 1.433-.966 2.648-2.278 3.038v1.76c0 1.85-.611 4.943-2.351 7.6-.793 1.225-1.96 2.568-3.636 3.593l.274 5.323h9.603l.665-12.87 3.189-1.307v-6.864c0-4.907-3.881-8.89-8.656-8.89-4.774 0-8.655 3.983-8.655 8.89v6.864l3.189 1.307.158 3.017c-1.301 1.488-3.205 2.597-6.194 2.597-4.728 0-6.762-1.614-7.86-3.736-1.1-2.122-1.138-4.923-1.138-7.148l-.001-.046c5.602-.462 10.024-5.143 10.024-10.837v-7.256c0-.501-.408-.907-.911-.907h-2.981c-.325-.56-.925-.906-1.575-.907-1.006 0-1.822.812-1.822 1.814s.816 1.814 1.822 1.814c.65 0 1.251-.346 1.577-.907h2.067v6.349c0 5.02-4.068 9.07-9.11 9.07-5.043 0-9.112-4.05-9.112-9.07v-6.35h2.07c.325.561.925.907 1.575.908 1.006 0 1.822-.812 1.822-1.814s-.816-1.814-1.822-1.814zm26.877 15.419c-.754 0-1.366.61-1.366 1.36 0 .751.612 1.36 1.366 1.36.755 0 1.367-.609 1.367-1.36 0-.75-.612-1.36-1.367-1.36z" transform="translate(-513 -140)"/>
    </g>
</svg>
