<svg xmlns="http://www.w3.org/2000/svg" width="38" height="36" viewBox="0 0 38 36">
    <g fill="none" fill-rule="evenodd">
        <path fill="#0075C4" d="M299 0H612V792H299z" transform="translate(-516 -319)"/>
        <path fill="#FFF" fill-rule="nonzero" d="M532.077 319c-8.879 0-16.077 6.447-16.077 14.4 0 4.085 1.912 7.758 4.964 10.375-.438 1.413-1.35 2.818-3.029 4.07l-.002.003c-.284.106-.471.373-.471.672 0 .398.327.72.73.72.05 0 .1-.006.149-.017 2.835-.008 5.255-1.201 7.179-2.697.913.366 1.867.668 2.86.877-.444-1.238-.688-2.556-.688-3.923 0-2.07.564-4.022 1.542-5.76h-3.003c-.807 0-1.462-.645-1.462-1.44 0-.795.655-1.44 1.462-1.44h5.215c1.187-1.172 2.603-2.153 4.196-2.88h-9.411c-.807 0-1.462-.645-1.462-1.44 0-.795.655-1.44 1.462-1.44h11.692c.807 0 1.462.645 1.462 1.44 0 .096-.037.182-.055.273.962-.177 1.958-.273 2.978-.273 2.02 0 3.945.366 5.697 1.027-1.017-7.077-7.752-12.547-15.928-12.547zm10.23 14.4c-6.456 0-11.692 4.513-11.692 10.08s5.236 10.08 11.693 10.08c1.543 0 3.012-.266 4.361-.734 1.793 1.234 3.962 2.149 6.446 2.157.05.011.102.017.154.017.404 0 .731-.322.731-.72 0-.302-.192-.571-.48-.675-1.337-1-2.194-2.102-2.709-3.223 1.972-1.804 3.189-4.228 3.189-6.902 0-5.567-5.235-10.08-11.692-10.08zm-4.384 5.76h8.77c.806 0 1.46.645 1.46 1.44 0 .795-.654 1.44-1.46 1.44h-8.77c-.807 0-1.461-.645-1.461-1.44 0-.795.654-1.44 1.461-1.44zm0 5.76h8.77c.806 0 1.46.645 1.46 1.44 0 .795-.654 1.44-1.46 1.44h-8.77c-.807 0-1.461-.645-1.461-1.44 0-.795.654-1.44 1.461-1.44z" transform="translate(-516 -319)"/>
    </g>
</svg>
